# xmcd
#
# Track frame offsets:
#	150
#	14678
#	28839
#	41027
#	56044
#	71976
#	84750
#	99479
#	112494
#	128082
#	141103
#	153153
#	167941
#	179489
#	198024
#	211724
#	223441
#	234805
#	249681
#	259749
#
# Disc length: 3700 seconds
#
# Revision: 0
# Processed by: cddbd v1.5.2PL0 Copyright (c) Steve Scherf et al.
# Submitted via: EasyCDDAExtractor 16.0.6.1
#
DISCID=290e7214
DTITLE=本田路津子 - GOLDEN BEST disc 2
DYEAR=2008
DGENRE=
TTITLE0=遠い世界に
TTITLE1=あの素晴らしい愛をもう一度
TTITLE2=白い色は恋人の色
TTITLE3=誰もいない海
TTITLE4=知床旅情
TTITLE5=遠くへ行きたい
TTITLE6=サルビアの花
TTITLE7=さよならをするために
TTITLE8=小さな日記
TTITLE9=戦争は知らない
TTITLE10=若者たち
TTITLE11=春夏秋冬
TTITLE12=結婚しようよ
TTITLE13=雨が空から降れば
TTITLE14=マリエ
TTITLE15=太陽がくれた季節
TTITLE16=美しい星
TTITLE17=ケ・サラ
TTITLE18=今日の日はさようなら
TTITLE19=私の小さな人生
EXTD=
EXTT0=
EXTT1=
EXTT2=
EXTT3=
EXTT4=
EXTT5=
EXTT6=
EXTT7=
EXTT8=
EXTT9=
EXTT10=
EXTT11=
EXTT12=
EXTT13=
EXTT14=
EXTT15=
EXTT16=
EXTT17=
EXTT18=
EXTT19=
PLAYORDER=
